<?xml version="1.0" encoding="UTF-8" standalone="no"?>
<!-- Created with Inkscape (http://www.inkscape.org/) -->

<svg
   width="153.03696mm"
   height="122.52208mm"
   viewBox="0 0 153.03696 122.52208"
   version="1.1"
   id="svg5"
   inkscape:version="1.1.2 (b8e25be8, 2022-02-05)"
   sodipodi:docname="zgb_logo.svg"
   xmlns:inkscape="http://www.inkscape.org/namespaces/inkscape"
   xmlns:sodipodi="http://sodipodi.sourceforge.net/DTD/sodipodi-0.dtd"
   xmlns="http://www.w3.org/2000/svg"
   xmlns:svg="http://www.w3.org/2000/svg">
  <sodipodi:namedview
     id="namedview7"
     pagecolor="#505050"
     bordercolor="#ffffff"
     borderopacity="1"
     inkscape:pageshadow="0"
     inkscape:pageopacity="0"
     inkscape:pagecheckerboard="1"
     inkscape:document-units="mm"
     showgrid="false"
     inkscape:zoom="0.67972082"
     inkscape:cx="71.352824"
     inkscape:cy="468.57473"
     inkscape:window-width="1920"
     inkscape:window-height="943"
     inkscape:window-x="1080"
     inkscape:window-y="690"
     inkscape:window-maximized="0"
     inkscape:current-layer="layer1" />
  <defs
     id="defs2" />
  <g
     inkscape:label="Layer 1"
     inkscape:groupmode="layer"
     id="layer1">
    <path
       style="opacity:1;fill:none;stroke:#0000ff;stroke-width:15;stroke-linecap:round;stroke-linejoin:round;stroke-miterlimit:4;stroke-dasharray:none;stroke-opacity:1"
       d="m 65.536974,12.5644 39.999986,1e-5 h 19.99999 c 0,0 19.99998,3e-5 19.99999,20.000007 2e-5,19.99998 -19.99998,19.99998 -19.99998,19.99998 h -20 20 c 0,0 20,0 20,19.999985 0,20.000005 -20,19.999995 -20,19.999995 l -20.00001,1e-5 H 65.536984 Z"
       id="path9959" />
    <g
       id="g8215"
       style="opacity:1;stroke:#00ff00;stroke-opacity:1"
       transform="translate(-179.16434,-66.773973)">
      <path
         style="fill:none;stroke:#00ff00;stroke-width:15;stroke-linecap:round;stroke-linejoin:round;stroke-miterlimit:4;stroke-dasharray:none;stroke-opacity:1"
         d="m 296.66436,144.27396 c -30,0 -30,0 -30,0"
         id="path7281" />
      <path
         style="fill:none;stroke:#00ff00;stroke-width:15;stroke-linecap:round;stroke-linejoin:round;stroke-miterlimit:4;stroke-dasharray:none;stroke-opacity:1"
         d="m 296.66436,144.27396 c 1e-5,34.99999 1e-5,34.99999 1e-5,34.99999"
         id="path7512" />
      <path
         style="fill:none;fill-opacity:1;stroke:#00ff00;stroke-width:15;stroke-linecap:round;stroke-linejoin:round;stroke-miterlimit:4;stroke-dasharray:none;stroke-opacity:1"
         id="path7656"
         sodipodi:type="arc"
         sodipodi:cx="256.66412"
         sodipodi:cy="144.27437"
         sodipodi:rx="37.521828"
         sodipodi:ry="37.521828"
         sodipodi:start="0"
         sodipodi:end="5.5562629"
         sodipodi:open="true"
         sodipodi:arc-type="arc"
         d="m 294.18595,144.27437 a 37.521828,37.521828 0 0 1 -30.74043,36.90393 37.521828,37.521828 0 0 1 -41.852,-23.56449 37.521828,37.521828 0 0 1 15.61246,-45.42165 37.521828,37.521828 0 0 1 47.49532,7.14621" />
    </g>
    <path
       style="opacity:1;fill:none;stroke:#ff0000;stroke-width:15;stroke-linecap:round;stroke-linejoin:round;stroke-miterlimit:4;stroke-dasharray:none;stroke-opacity:1"
       d="M 7.5,7.50001 87.500009,7.5 7.50002,77.499987 h 79.999999"
       id="path5600" />
  </g>
</svg>
